<svg width="106" height="49" viewBox="0 0 106 49" fill="none" xmlns="http://www.w3.org/2000/svg">
<path d="M33.2691 27.9947C32.3314 27.9947 31.4607 27.8205 30.657 27.4723C29.8533 27.1106 29.1702 26.6217 28.6076 26.0055C28.045 25.3893 27.6297 24.6794 27.3618 23.8757L29.3711 23.0318C29.7328 23.956 30.2619 24.666 30.9584 25.1616C31.655 25.6572 32.4587 25.905 33.3696 25.905C33.9054 25.905 34.3742 25.8247 34.7761 25.6639C35.1779 25.4898 35.486 25.2487 35.7003 24.9406C35.928 24.6325 36.0419 24.2775 36.0419 23.8757C36.0419 23.3265 35.8878 22.8911 35.5798 22.5696C35.2717 22.2481 34.8162 21.9936 34.2135 21.8061L31.4005 20.922C30.2753 20.5737 29.418 20.0446 28.8286 19.3347C28.2392 18.6114 27.9445 17.7675 27.9445 16.803C27.9445 15.9591 28.1521 15.2224 28.5674 14.5928C28.9826 13.9498 29.5519 13.4475 30.2753 13.0858C31.012 12.7242 31.8492 12.5433 32.7869 12.5433C33.6843 12.5433 34.5014 12.7041 35.2382 13.0256C35.9749 13.3337 36.6045 13.7623 37.1269 14.3115C37.6627 14.8607 38.0512 15.497 38.2923 16.2203L36.3232 17.0843C36.0285 16.294 35.5664 15.6845 34.9368 15.2559C34.3206 14.8272 33.604 14.6129 32.7869 14.6129C32.2912 14.6129 31.8559 14.7 31.4808 14.8741C31.1058 15.0348 30.8111 15.276 30.5968 15.5974C30.3958 15.9055 30.2954 16.2672 30.2954 16.6824C30.2954 17.1647 30.4494 17.5933 30.7575 17.9684C31.0656 18.3434 31.5344 18.6247 32.164 18.8123L34.7761 19.6361C35.9682 19.9978 36.8657 20.5202 37.4685 21.2033C38.0713 21.8731 38.3727 22.7103 38.3727 23.7149C38.3727 24.5454 38.1516 25.2822 37.7096 25.9251C37.281 26.5681 36.6849 27.0771 35.9213 27.4522C35.1578 27.8138 34.2737 27.9947 33.2691 27.9947Z" fill="white"/>
<path d="M41.436 27.7536V12.7844H43.6462L49.2722 20.5804H48.1671L53.6926 12.7844H55.9028V27.7536H53.552V15.5773L54.436 15.8185L48.79 23.5341H48.5489L43.0233 15.8185L43.807 15.5773V27.7536H41.436Z" fill="white"/>
<path d="M58.0733 27.7536L63.3376 12.7844H66.2712L71.5355 27.7536H69.0038L67.8585 24.3981H61.7704L60.605 27.7536H58.0733ZM62.4535 22.2883H67.1351L64.4829 14.4521H65.146L62.4535 22.2883Z" fill="white"/>
<path d="M73.7132 27.7536V12.7844H79.1583C80.163 12.7844 81.047 12.972 81.8106 13.347C82.5741 13.7087 83.1702 14.2445 83.5988 14.9545C84.0409 15.651 84.2619 16.4882 84.2619 17.4661C84.2619 18.4975 84.0007 19.3816 83.4783 20.1183C82.9692 20.855 82.2794 21.3909 81.4087 21.7257L84.8647 27.7536H82.1722L78.4953 21.2234L80.0424 22.1276H76.0841V27.7536H73.7132ZM76.0841 20.0178H79.1985C79.7477 20.0178 80.2232 19.9107 80.6251 19.6964C81.0269 19.482 81.335 19.1873 81.5494 18.8123C81.7771 18.4238 81.8909 17.9684 81.8909 17.446C81.8909 16.9236 81.7771 16.4748 81.5494 16.0998C81.335 15.7113 81.0269 15.4166 80.6251 15.2157C80.2232 15.0014 79.7477 14.8942 79.1985 14.8942H76.0841V20.0178Z" fill="white"/>
<path d="M89.5215 27.7536V14.8942H85.5431V12.7844H95.7904V14.8942H91.8723V27.7536H89.5215Z" fill="white"/>
<path d="M28.0249 47.941V32.9719H33.47C34.4747 32.9719 35.3587 33.1594 36.1223 33.5345C36.8992 33.8962 37.502 34.432 37.9306 35.1419C38.3593 35.8385 38.5736 36.6757 38.5736 37.6535C38.5736 38.618 38.3526 39.4485 37.9105 40.145C37.4819 40.8416 36.8858 41.3774 36.1223 41.7524C35.3587 42.1275 34.4747 42.315 33.47 42.315H30.3958V47.941H28.0249ZM30.3958 40.2053H33.5303C34.0661 40.2053 34.5349 40.0981 34.9368 39.8838C35.3386 39.6695 35.6534 39.3748 35.8812 38.9997C36.1089 38.6113 36.2227 38.1558 36.2227 37.6334C36.2227 37.111 36.1089 36.6623 35.8812 36.2872C35.6534 35.8987 35.3386 35.6041 34.9368 35.4031C34.5349 35.1888 34.0661 35.0816 33.5303 35.0816H30.3958V40.2053Z" fill="white"/>
<path d="M41.4164 47.941V32.9719H43.7873V45.8313H50.2572V47.941H41.4164Z" fill="white"/>
<path d="M51.3234 47.941L56.5877 32.9719H59.5212L64.7855 47.941H62.2539L61.1086 44.5855H55.0205L53.8551 47.941H51.3234ZM55.7036 42.4758H60.3852L57.733 34.6396H58.396L55.7036 42.4758Z" fill="white"/>
<path d="M73.3272 48.1821C72.269 48.1821 71.2844 47.9879 70.3735 47.5994C69.4761 47.211 68.6924 46.6752 68.0227 45.992C67.3663 45.2955 66.8506 44.4784 66.4755 43.5407C66.1005 42.603 65.9129 41.5716 65.9129 40.4464C65.9129 39.3346 66.0938 38.3099 66.4554 37.3722C66.8305 36.4212 67.3529 35.6041 68.0227 34.9209C68.6924 34.2243 69.4761 33.6885 70.3735 33.3135C71.271 32.925 72.2556 32.7308 73.3272 32.7308C74.3854 32.7308 75.3298 32.9116 76.1603 33.2733C77.0042 33.635 77.7141 34.1105 78.2901 34.6999C78.8661 35.2759 79.2813 35.9054 79.5358 36.5886L77.406 37.5932C77.0845 36.7895 76.5688 36.1399 75.8589 35.6442C75.1623 35.1352 74.3184 34.8807 73.3272 34.8807C72.3359 34.8807 71.4585 35.1151 70.695 35.584C69.9315 36.0528 69.3354 36.7025 68.9068 37.533C68.4915 38.3635 68.2839 39.3346 68.2839 40.4464C68.2839 41.5582 68.4915 42.5361 68.9068 43.38C69.3354 44.2105 69.9315 44.8601 70.695 45.329C71.4585 45.7844 72.3359 46.0121 73.3272 46.0121C74.3184 46.0121 75.1623 45.7643 75.8589 45.2687C76.5688 44.7731 77.0845 44.1234 77.406 43.3197L79.5358 44.3243C79.2813 44.9941 78.8661 45.6237 78.2901 46.213C77.7141 46.8024 77.0042 47.278 76.1603 47.6396C75.3298 48.0013 74.3854 48.1821 73.3272 48.1821Z" fill="white"/>
<path d="M82.3758 47.941V32.9719H92.2414V35.0816H84.7468V39.3815H91.8395V41.4912H84.7468V45.8313H92.2414V47.941H82.3758Z" fill="white"/>
<path d="M100.089 48.1821C99.1517 48.1821 98.281 48.008 97.4773 47.6597C96.6736 47.298 95.9904 46.8091 95.4278 46.1929C94.8652 45.5768 94.45 44.8668 94.1821 44.0631L96.1913 43.2192C96.553 44.1435 97.0821 44.8534 97.7787 45.3491C98.4752 45.8447 99.2789 46.0925 100.19 46.0925C100.726 46.0925 101.194 46.0121 101.596 45.8514C101.998 45.6772 102.306 45.4361 102.521 45.128C102.748 44.8199 102.862 44.465 102.862 44.0631C102.862 43.5139 102.708 43.0786 102.4 42.7571C102.092 42.4356 101.636 42.1811 101.034 41.9936L98.2207 41.1095C97.0955 40.7612 96.2382 40.2321 95.6488 39.5221C95.0594 38.7988 94.7648 37.9549 94.7648 36.9905C94.7648 36.1466 94.9724 35.4098 95.3876 34.7803C95.8029 34.1373 96.3722 33.635 97.0955 33.2733C97.8323 32.9116 98.6694 32.7308 99.6071 32.7308C100.505 32.7308 101.322 32.8915 102.058 33.213C102.795 33.5211 103.425 33.9497 103.947 34.499C104.483 35.0482 104.871 35.6844 105.113 36.4078L103.143 37.2718C102.849 36.4814 102.387 35.872 101.757 35.4433C101.141 35.0147 100.424 34.8003 99.6071 34.8003C99.1115 34.8003 98.6761 34.8874 98.3011 35.0615C97.926 35.2223 97.6313 35.4634 97.417 35.7849C97.2161 36.093 97.1156 36.4546 97.1156 36.8699C97.1156 37.3521 97.2697 37.7808 97.5777 38.1558C97.8858 38.5309 98.3547 38.8122 98.9842 38.9997L101.596 39.8235C102.788 40.1852 103.686 40.7076 104.289 41.3908C104.892 42.0605 105.193 42.8977 105.193 43.9024C105.193 44.7329 104.972 45.4696 104.53 46.1126C104.101 46.7555 103.505 47.2646 102.742 47.6396C101.978 48.0013 101.094 48.1821 100.089 48.1821Z" fill="white"/>
<path d="M17.6228 4.52188L9.35358 16.2804C9.33104 16.3125 9.28244 16.3089 9.26491 16.2738L2.05425 5.50595C1.98248 5.39876 1.97968 5.25959 2.0471 5.14962L4.59076 1.00027C4.64527 0.911351 4.73858 0.853409 4.84245 0.843983L14.1278 0.00135412C14.2383 -0.0086746 14.3465 0.037471 14.4157 0.124188L17.6108 4.12588C17.7023 4.24054 17.7072 4.40186 17.6228 4.52188Z" fill="#FF2E65"/>
<path d="M6.73554 5.55746C6.57583 5.67107 6.35181 5.60147 6.28459 5.41736L4.75464 1.22665C4.6876 1.04303 4.81325 0.845859 5.00801 0.829067L13.453 0.100955C13.7542 0.0749817 13.897 0.463382 13.6506 0.638648L6.73554 5.55746Z" fill="#F73278"/>
<path d="M9.02835 14.895C9.11867 15.22 8.68302 15.4199 8.49552 15.1395L2.21966 5.75253C2.0805 5.5444 2.24563 5.26807 2.49484 5.29201L6.26297 5.65401C6.38528 5.66576 6.48772 5.75165 6.52062 5.87005L9.02835 14.895Z" fill="#ED1E67"/>
<path d="M17.4946 3.92941C17.64 4.11 17.5316 4.38012 17.3017 4.41001L7.3456 5.7043C7.04063 5.74395 6.884 5.3507 7.13272 5.16981L14.0688 0.125395C14.1968 0.0322945 14.3753 0.0560028 14.4746 0.179285L17.4946 3.92941Z" fill="#ED1E67"/>
<path d="M9.652 15.8908C9.50742 16.0969 9.18806 16.0408 9.12237 15.7978L6.47432 6.0003C6.42736 5.82655 6.54458 5.65131 6.7231 5.62839L17.187 4.28484C17.4429 4.25199 17.616 4.53862 17.4678 4.74979L9.652 15.8908Z" fill="#D8024D"/>
<path d="M9.43398 19.1444L18.8678 14.2313L9.43398 47.9409L0.00012207 14.2313L9.43398 19.1444Z" fill="#6015FF"/>
<path d="M9.43402 47.9406V26.3386L18.8679 14.2187L9.43402 47.9406Z" fill="#390FB1"/>
<path d="M9.43402 47.9406V26.4068L0.000160217 14.2187L9.43402 47.9406Z" fill="#5237FC"/>
</svg>
