<?xml version="1.0" encoding="UTF-8" standalone="no"?>
<svg
   width="106"
   height="49"
   viewBox="0 0 106 49"
   fill="none"
   version="1.1"
   id="svg19"
   sodipodi:docname="SPT_logo.svg"
   inkscape:version="1.3 (0e150ed6c4, 2023-07-21)"
   xmlns:inkscape="http://www.inkscape.org/namespaces/inkscape"
   xmlns:sodipodi="http://sodipodi.sourceforge.net/DTD/sodipodi-0.dtd"
   xmlns="http://www.w3.org/2000/svg"
   xmlns:svg="http://www.w3.org/2000/svg">
  <defs
     id="defs19" />
  <sodipodi:namedview
     id="namedview19"
     pagecolor="#505050"
     bordercolor="#eeeeee"
     borderopacity="1"
     inkscape:showpageshadow="0"
     inkscape:pageopacity="0"
     inkscape:pagecheckerboard="0"
     inkscape:deskcolor="#505050"
     inkscape:zoom="10.471698"
     inkscape:cx="53.000001"
     inkscape:cy="24.542343"
     inkscape:window-width="1920"
     inkscape:window-height="976"
     inkscape:window-x="1912"
     inkscape:window-y="31"
     inkscape:window-maximized="1"
     inkscape:current-layer="svg19" />
  <path
     d="m 31.156743,12.469525 c -0.602393,0 -1.161744,-0.111909 -1.678054,-0.335598 -0.51631,-0.232362 -0.955144,-0.546439 -1.316567,-0.942296 C 27.800699,10.795775 27.533903,10.339724 27.3618,9.823414 l 1.290806,-0.542135 c 0.232362,0.593721 0.572264,1.049836 1.019707,1.368217 0.447507,0.318382 0.963817,0.477572 1.548993,0.477572 0.344207,0 0.645371,-0.05159 0.903558,-0.154886 0.258123,-0.111845 0.456051,-0.266731 0.593721,-0.464659 0.146278,-0.197929 0.219449,-0.425986 0.219449,-0.684109 0,-0.352815 -0.099,-0.632523 -0.29686,-0.83906 C 32.443245,8.777818 32.150625,8.614323 31.763441,8.49387 L 29.956325,7.92591 C 29.233479,7.702157 28.682736,7.362254 28.304096,6.906203 c -0.37864,-0.464659 -0.56796,-1.006794 -0.56796,-1.626404 0,-0.542135 0.133365,-1.015403 0.400161,-1.419868 0.266731,-0.413073 0.632458,-0.735759 1.097182,-0.96812 C 29.706746,2.659513 30.244577,2.5433 30.84697,2.5433 c 0.576504,0 1.101423,0.1033 1.574755,0.309837 0.473267,0.197929 0.877732,0.473268 1.21333,0.826083 0.344207,0.352815 0.593785,0.761584 0.748672,1.226243 L 33.118746,5.460511 C 32.929426,4.952809 32.632565,4.561257 32.2281,4.285917 31.832244,4.010514 31.371888,3.872844 30.84697,3.872844 c -0.318445,0 -0.598089,0.05595 -0.839059,0.167799 -0.240906,0.103236 -0.430226,0.258187 -0.567896,0.464659 -0.129125,0.197929 -0.193624,0.430291 -0.193624,0.697022 0,0.309837 0.09893,0.585176 0.296861,0.826146 0.197928,0.240906 0.499093,0.421618 0.903558,0.542135 l 1.678054,0.529222 c 0.765824,0.232362 1.342392,0.56796 1.729641,1.006795 0.387248,0.43029 0.580872,0.96812 0.580872,1.613491 0,0.533527 -0.142038,1.006859 -0.425986,1.419868 -0.275339,0.413073 -0.658283,0.740063 -1.148832,0.981033 -0.490485,0.232298 -1.058445,0.348511 -1.703816,0.348511 z"
     fill="#ffffff"
     id="path1"
     style="stroke-width:0.642416" />
  <path
     d="M 36.40329,12.314638 V 2.698186 h 1.419867 l 3.614232,5.008275 h -0.709934 l 3.549669,-5.008275 h 1.419868 v 9.616452 H 44.186801 V 4.49239 l 0.567895,0.154951 -3.62708,4.956624 H 40.97273 L 37.422997,4.647341 37.926458,4.49239 v 7.822248 z"
     fill="#ffffff"
     id="path2"
     style="stroke-width:0.642416" />
  <path
     d="m 47.091356,12.314638 3.38187,-9.616452 h 1.884591 l 3.38187,9.616452 h -1.626404 l -0.735759,-2.155626 h -3.911092 l -0.748672,2.155626 z m 2.81391,-3.510995 H 52.9128 l -1.703815,-5.0341 h 0.425986 z"
     fill="#ffffff"
     id="path3"
     style="stroke-width:0.642416" />
  <path
     d="M 57.138676,12.314638 V 2.698186 h 3.498019 c 0.645435,0 1.213331,0.120518 1.70388,0.361424 0.490484,0.232361 0.873428,0.576568 1.148768,1.032683 0.284012,0.447443 0.425986,0.985273 0.425986,1.613492 0,0.662588 -0.167799,1.230548 -0.503397,1.703815 -0.327054,0.473268 -0.770193,0.817539 -1.329544,1.03262 l 2.220189,3.872418 H 62.572872 L 60.210773,8.119534 61.204655,8.700407 H 58.66178 v 3.614231 z m 1.523104,-4.9696 h 2.00074 c 0.352815,0 0.658284,-0.0688 0.916471,-0.206473 0.258122,-0.137734 0.456051,-0.327054 0.593785,-0.56796 0.146278,-0.249578 0.219385,-0.542135 0.219385,-0.877733 0,-0.335598 -0.07311,-0.623914 -0.219385,-0.86482 C 62.035042,4.578474 61.837113,4.389154 61.578991,4.260092 61.320804,4.122423 61.015335,4.053556 60.66252,4.053556 h -2.00074 z"
     fill="#ffffff"
     id="path4"
     style="stroke-width:0.642416" />
  <path
     d="M 67.294179,12.314638 V 4.053556 h -2.555787 v -1.35537 h 6.583028 v 1.35537 h -2.517049 v 8.261082 z"
     fill="#ffffff"
     id="path5"
     style="stroke-width:0.642416" />
  <path
     d="m 27.787786,25.283345 v -9.616388 h 3.498019 c 0.645435,0 1.213331,0.120453 1.703879,0.361424 0.499093,0.232361 0.886342,0.576568 1.161681,1.032619 0.275404,0.447507 0.413074,0.985337 0.413074,1.613492 0,0.61961 -0.141974,1.153136 -0.425986,1.600579 -0.27534,0.447507 -0.658284,0.791713 -1.148769,1.032619 -0.490548,0.24097 -1.058444,0.361423 -1.703879,0.361423 H 29.31089 v 3.614232 z m 1.523104,-4.969537 h 2.013652 c 0.344207,0 0.645371,-0.06887 0.903558,-0.206536 0.258123,-0.13767 0.460356,-0.32699 0.606698,-0.56796 0.146278,-0.249514 0.219385,-0.542135 0.219385,-0.877733 0,-0.335598 -0.07311,-0.62385 -0.219385,-0.86482 -0.146342,-0.249579 -0.348575,-0.438835 -0.606698,-0.56796 -0.258187,-0.13767 -0.559351,-0.206537 -0.903558,-0.206537 H 29.31089 Z"
     fill="#ffffff"
     id="path6"
     style="stroke-width:0.642416" />
  <path
     d="m 36.390698,25.283345 v -9.616388 h 1.523104 v 8.261083 h 4.156367 v 1.355305 z"
     fill="#ffffff"
     id="path7"
     style="stroke-width:0.642416" />
  <path
     d="m 42.755113,25.283345 3.38187,-9.616388 h 1.884527 l 3.38187,9.616388 h -1.62634 l -0.735759,-2.155626 h -3.911092 l -0.748672,2.155626 z m 2.81391,-3.510931 h 3.007534 l -1.703815,-5.0341 h 0.425921 z"
     fill="#ffffff"
     id="path8"
     style="stroke-width:0.642416" />
  <path
     d="m 56.890704,25.438232 c -0.679805,0 -1.312328,-0.124758 -1.897504,-0.374336 -0.576504,-0.249514 -1.079966,-0.593721 -1.510192,-1.032619 -0.421681,-0.447443 -0.752975,-0.972361 -0.993945,-1.574755 -0.240906,-0.602393 -0.361424,-1.264981 -0.361424,-1.987827 0,-0.714238 0.116213,-1.372522 0.348511,-1.974915 0.24097,-0.610938 0.576568,-1.135856 1.006858,-1.574754 0.430226,-0.447507 0.933688,-0.791713 1.510192,-1.032619 0.576568,-0.249579 1.209091,-0.374336 1.897504,-0.374336 0.679804,0 1.286502,0.116149 1.820028,0.348511 0.542135,0.232361 0.998186,0.53783 1.368217,0.91647 0.370032,0.370032 0.636763,0.774432 0.800258,1.213331 l -1.368217,0.645371 c -0.206537,-0.51631 -0.537831,-0.933623 -0.993882,-1.252069 -0.447507,-0.326989 -0.989642,-0.490484 -1.626404,-0.490484 -0.636827,0 -1.200483,0.150582 -1.690968,0.451811 -0.490484,0.301164 -0.873428,0.718542 -1.148768,1.252068 -0.266795,0.533527 -0.400161,1.157377 -0.400161,1.871615 0,0.714238 0.133366,1.342456 0.400161,1.884591 0.27534,0.533527 0.658284,0.95084 1.148768,1.252069 0.490485,0.292556 1.054141,0.438834 1.690968,0.438834 0.636762,0 1.178897,-0.159191 1.626404,-0.477572 0.456051,-0.318381 0.787345,-0.735759 0.993882,-1.252068 l 1.368217,0.645371 c -0.163495,0.43029 -0.430226,0.834755 -0.800258,1.21333 -0.370031,0.37864 -0.826082,0.684173 -1.368217,0.916471 -0.533526,0.232362 -1.140224,0.348511 -1.820028,0.348511 z"
     fill="#ffffff"
     id="path9"
     style="stroke-width:0.642416" />
  <path
     d="m 62.703668,25.283345 v -9.616388 h 6.337818 v 1.355305 h -4.81465 v 2.762324 h 4.556463 v 1.355305 h -4.556463 v 2.788149 h 4.81465 v 1.355305 z"
     fill="#ffffff"
     id="path10"
     style="stroke-width:0.642416" />
  <path
     d="m 74.082909,25.438232 c -0.602136,0 -1.161488,-0.111845 -1.677797,-0.335598 -0.51631,-0.232362 -0.955209,-0.546439 -1.316632,-0.942296 -0.361423,-0.395793 -0.628154,-0.851908 -0.800257,-1.368217 l 1.290742,-0.542135 c 0.232362,0.593785 0.572264,1.049836 1.019771,1.368281 0.447443,0.318382 0.963752,0.477572 1.549057,0.477572 0.344335,0 0.644986,-0.05165 0.903237,-0.154886 0.258251,-0.111909 0.456115,-0.266795 0.594235,-0.464724 0.145828,-0.197928 0.219064,-0.425922 0.219064,-0.684108 0,-0.352815 -0.09893,-0.632459 -0.296797,-0.838996 -0.197864,-0.206536 -0.490805,-0.370031 -0.87754,-0.490484 l -1.807308,-0.56796 c -0.722847,-0.223754 -1.27359,-0.563656 -1.65223,-1.019771 -0.37864,-0.464659 -0.567895,-1.006794 -0.567895,-1.62634 0,-0.542135 0.133365,-1.015467 0.400096,-1.419868 0.266796,-0.413073 0.632523,-0.735759 1.097182,-0.96812 0.473332,-0.232362 1.011099,-0.348511 1.613492,-0.348511 0.576825,0 1.101679,0.103236 1.574497,0.309773 0.473461,0.197928 0.878183,0.473268 1.213524,0.826147 0.344335,0.352814 0.593592,0.761519 0.749057,1.226243 l -1.26556,0.555047 c -0.18887,-0.507765 -0.485666,-0.899253 -0.890388,-1.174657 -0.395728,-0.275339 -0.85634,-0.413073 -1.38113,-0.413073 -0.318381,0 -0.598089,0.05595 -0.838995,0.167799 -0.24097,0.1033 -0.43029,0.258187 -0.56796,0.464723 -0.129061,0.197929 -0.193624,0.430226 -0.193624,0.697022 0,0.309772 0.099,0.585176 0.29686,0.826082 0.197929,0.24097 0.499157,0.421682 0.903558,0.542135 l 1.677862,0.529222 c 0.76576,0.232362 1.342649,0.56796 1.730026,1.006859 0.387377,0.430225 0.580744,0.968056 0.580744,1.613491 0,0.533527 -0.141974,1.006794 -0.425922,1.419868 -0.275596,0.413009 -0.658476,0.740063 -1.148639,0.980969 -0.490806,0.232362 -1.058702,0.348511 -1.70433,0.348511 z"
     fill="#ffffff"
     id="path11"
     style="stroke-width:0.642416" />
  <path
     d="M17.6228 4.52188L9.35358 16.2804C9.33104 16.3125 9.28244 16.3089 9.26491 16.2738L2.05425 5.50595C1.98248 5.39876 1.97968 5.25959 2.0471 5.14962L4.59076 1.00027C4.64527 0.911351 4.73858 0.853409 4.84245 0.843983L14.1278 0.00135412C14.2383 -0.0086746 14.3465 0.037471 14.4157 0.124188L17.6108 4.12588C17.7023 4.24054 17.7072 4.40186 17.6228 4.52188Z"
     fill="#FF2E65"
     id="path12" />
  <path
     d="M6.73554 5.55746C6.57583 5.67107 6.35181 5.60147 6.28459 5.41736L4.75464 1.22665C4.6876 1.04303 4.81325 0.845859 5.00801 0.829067L13.453 0.100955C13.7542 0.0749817 13.897 0.463382 13.6506 0.638648L6.73554 5.55746Z"
     fill="#F73278"
     id="path13" />
  <path
     d="M9.02835 14.895C9.11867 15.22 8.68302 15.4199 8.49552 15.1395L2.21966 5.75253C2.0805 5.5444 2.24563 5.26807 2.49484 5.29201L6.26297 5.65401C6.38528 5.66576 6.48772 5.75165 6.52062 5.87005L9.02835 14.895Z"
     fill="#ED1E67"
     id="path14" />
  <path
     d="M17.4946 3.92941C17.64 4.11 17.5316 4.38012 17.3017 4.41001L7.3456 5.7043C7.04063 5.74395 6.884 5.3507 7.13272 5.16981L14.0688 0.125395C14.1968 0.0322945 14.3753 0.0560028 14.4746 0.179285L17.4946 3.92941Z"
     fill="#ED1E67"
     id="path15" />
  <path
     d="M9.652 15.8908C9.50742 16.0969 9.18806 16.0408 9.12237 15.7978L6.47432 6.0003C6.42736 5.82655 6.54458 5.65131 6.7231 5.62839L17.187 4.28484C17.4429 4.25199 17.616 4.53862 17.4678 4.74979L9.652 15.8908Z"
     fill="#D8024D"
     id="path16" />
  <path
     d="M9.43398 19.1444L18.8678 14.2313L9.43398 47.9409L0.00012207 14.2313L9.43398 19.1444Z"
     fill="#6015FF"
     id="path17" />
  <path
     d="M9.43402 47.9406V26.3386L18.8679 14.2187L9.43402 47.9406Z"
     fill="#390FB1"
     id="path18" />
  <path
     d="M9.43402 47.9406V26.4068L0.000160217 14.2187L9.43402 47.9406Z"
     fill="#5237FC"
     id="path19" />
  <text
     xml:space="preserve"
     style="font-style:normal;font-variant:normal;font-weight:bold;font-stretch:normal;font-size:21.3334px;font-family:Arial;-inkscape-font-specification:'Arial, Bold';font-variant-ligatures:normal;font-variant-caps:normal;font-variant-numeric:normal;font-variant-east-asian:normal;fill:#ffffff;fill-opacity:1;stroke-width:1"
     x="16.250446"
     y="44.792789"
     id="text1"><tspan
       sodipodi:role="line"
       id="tspan1"
       x="16.250446"
       y="44.792789"
       style="stroke-width:1">T</tspan></text>
  <text
     xml:space="preserve"
     style="font-style:normal;font-variant:normal;font-weight:bold;font-stretch:normal;font-size:21.3334px;font-family:Arial;-inkscape-font-specification:'Arial, Bold';font-variant-ligatures:normal;font-variant-caps:normal;font-variant-numeric:normal;font-variant-east-asian:normal;fill:#ffffff;fill-opacity:1;stroke-width:1"
     x="58.294891"
     y="44.792789"
     id="text1-5"><tspan
       sodipodi:role="line"
       id="tspan3"
       x="58.294891"
       y="44.792789"
       style="stroke-width:1">L</tspan></text>
  <text
     xml:space="preserve"
     style="font-style:normal;font-variant:normal;font-weight:bold;font-stretch:normal;font-size:21.3334px;font-family:Arial;-inkscape-font-specification:'Arial, Bold';font-variant-ligatures:normal;font-variant-caps:normal;font-variant-numeric:normal;font-variant-east-asian:normal;fill:#ffffff;fill-opacity:1;stroke-width:1"
     x="70.207253"
     y="44.792789"
     id="text1-5-9"><tspan
       sodipodi:role="line"
       id="tspan6">K</tspan></text>
  <text
     xml:space="preserve"
     style="font-style:normal;font-variant:normal;font-weight:bold;font-stretch:normal;font-size:21.3334px;font-family:Arial;-inkscape-font-specification:'Arial, Bold';font-variant-ligatures:normal;font-variant-caps:normal;font-variant-numeric:normal;font-variant-east-asian:normal;fill:#ffffff;fill-opacity:1;stroke-width:1"
     x="89.76722"
     y="44.792789"
     id="text1-5-9-5"><tspan
       sodipodi:role="line"
       id="tspan8"
       x="89.76722"
       y="44.792789">T</tspan></text>
  <text
     xml:space="preserve"
     style="font-style:normal;font-variant:normal;font-weight:bold;font-stretch:normal;font-size:21.3334px;font-family:Arial;-inkscape-font-specification:'Arial, Bold';font-variant-ligatures:normal;font-variant-caps:normal;font-variant-numeric:normal;font-variant-east-asian:normal;fill:#ffffff;fill-opacity:1;stroke-width:1"
     x="27.736832"
     y="44.792789"
     id="text1-3"><tspan
       sodipodi:role="line"
       id="tspan2"
       x="27.736832"
       y="44.792789"
       style="stroke-width:1">O</tspan></text>
  <text
     xml:space="preserve"
     style="font-style:normal;font-variant:normal;font-weight:bold;font-stretch:normal;font-size:21.3334px;font-family:Arial;-inkscape-font-specification:'Arial, Bold';font-variant-ligatures:normal;font-variant-caps:normal;font-variant-numeric:normal;font-variant-east-asian:normal;fill:#ffffff;fill-opacity:1;stroke-width:1"
     x="43.070019"
     y="45.053192"
     id="text1-3-8"><tspan
       sodipodi:role="line"
       id="tspan2-0"
       x="43.070019"
       y="45.053192"
       style="stroke-width:1">O</tspan></text>
  <text
     xml:space="preserve"
     style="font-style:normal;font-variant:normal;font-weight:bold;font-stretch:normal;font-size:21.3334px;font-family:Arial;-inkscape-font-specification:'Arial, Bold';font-variant-ligatures:normal;font-variant-caps:normal;font-variant-numeric:normal;font-variant-east-asian:normal;fill:#ffffff;fill-opacity:1;stroke-width:1"
     x="84.523369"
     y="44.792789"
     id="text1-3-8-6"><tspan
       sodipodi:role="line"
       id="tspan7">I</tspan></text>
</svg>
